<?xml version="1.0" encoding="utf-8"?>
<!-- Generator: Adobe Illustrator 19.0.0, SVG Export Plug-In . SVG Version: 6.00 Build 0)  -->
<svg version="1.1" id="Layer_1" xmlns="http://www.w3.org/2000/svg" xmlns:xlink="http://www.w3.org/1999/xlink" x="0px" y="0px"
	 viewBox="0 0 96 96" style="enable-background:new 0 0 96 96;" xml:space="preserve">
<style type="text/css">
	.st0{fill:#333333;}
</style>
<g id="XMLID_1_">
	<path id="XMLID_7_" class="st0" d="M48,80.5c-15.4,0-27.9-4.2-27.9-9.3v-9.3c0-0.8,0.4-1.6,1-2.3c3.1,4,13.9,7,26.9,7
		s23.8-3,26.9-7c0.6,0.7,1,1.5,1,2.3v9.3C75.9,76.3,63.4,80.5,48,80.5z M48,61.9c-15.4,0-27.9-4.2-27.9-9.3v-9.3
		c0-0.5,0.2-1,0.4-1.4l0.6-0.9c3.1,4,13.9,7,26.9,7s23.8-3,26.9-7l0.6,0.9c0.2,0.5,0.4,1,0.4,1.4v9.3C75.9,57.8,63.4,61.9,48,61.9z
		 M48,43.4c-15.4,0-27.9-4.2-27.9-9.3v-4.6v-4.6c0-5.1,12.5-9.3,27.9-9.3s27.9,4.2,27.9,9.3v4.6v4.6C75.9,39.2,63.4,43.4,48,43.4z
		 M48,20.1c-10.3,0-18.6,2.1-18.6,4.6s8.3,4.6,18.6,4.6s18.6-2.1,18.6-4.6S58.3,20.1,48,20.1z"/>
</g>
</svg>
